<svg width="796" height="170" viewBox="0 0 796 170" fill="none" xmlns="http://www.w3.org/2000/svg">
<path d="M273.672 134V61.808C273.672 54.64 275.763 48.9227 279.944 44.656C284.211 40.304 290.269 38.128 298.12 38.128C300.936 38.128 303.581 38.4267 306.056 39.024C308.616 39.6213 310.749 40.56 312.456 41.84L308.104 53.872C306.909 52.9333 305.544 52.2507 304.008 51.824C302.472 51.312 300.893 51.056 299.272 51.056C295.944 51.056 293.427 51.9947 291.72 53.872C290.013 55.664 289.16 58.3947 289.16 62.064V69.744L289.672 76.912V134H273.672ZM262.408 78.96V66.16H307.976V78.96H262.408ZM319.24 134V39.024H335.24V134H319.24ZM386.966 134.896C379.969 134.896 373.739 133.403 368.278 130.416C362.817 127.344 358.507 123.163 355.35 117.872C352.193 112.581 350.614 106.565 350.614 99.824C350.614 92.9973 352.193 86.9813 355.35 81.776C358.507 76.4853 362.817 72.3467 368.278 69.36C373.739 66.3733 379.969 64.88 386.966 64.88C394.049 64.88 400.321 66.3733 405.782 69.36C411.329 72.3467 415.638 76.4427 418.71 81.648C421.867 86.8533 423.446 92.912 423.446 99.824C423.446 106.565 421.867 112.581 418.71 117.872C415.638 123.163 411.329 127.344 405.782 130.416C400.321 133.403 394.049 134.896 386.966 134.896ZM386.966 121.2C390.891 121.2 394.39 120.347 397.462 118.64C400.534 116.933 402.923 114.459 404.63 111.216C406.422 107.973 407.318 104.176 407.318 99.824C407.318 95.3867 406.422 91.5893 404.63 88.432C402.923 85.1893 400.534 82.7147 397.462 81.008C394.39 79.3013 390.934 78.448 387.094 78.448C383.169 78.448 379.67 79.3013 376.598 81.008C373.611 82.7147 371.222 85.1893 369.43 88.432C367.638 91.5893 366.742 95.3867 366.742 99.824C366.742 104.176 367.638 107.973 369.43 111.216C371.222 114.459 373.611 116.933 376.598 118.64C379.67 120.347 383.126 121.2 386.966 121.2ZM451.975 134L426.887 65.648H441.991L463.495 125.936H456.327L478.855 65.648H492.295L514.183 125.936H507.143L529.287 65.648H543.495L518.279 134H502.919L482.951 80.624H487.687L467.335 134H451.975ZM560.896 134V39.024H576.896V134H560.896ZM597.896 134V65.648H613.896V134H597.896ZM605.96 54.384C602.973 54.384 600.499 53.4453 598.536 51.568C596.659 49.6907 595.72 47.4293 595.72 44.784C595.72 42.0533 596.659 39.792 598.536 38C600.499 36.1227 602.973 35.184 605.96 35.184C608.947 35.184 611.379 36.08 613.256 37.872C615.219 39.5787 616.2 41.7547 616.2 44.4C616.2 47.216 615.261 49.6053 613.384 51.568C611.507 53.4453 609.032 54.384 605.96 54.384ZM637.072 134V61.808C637.072 54.64 639.163 48.9227 643.344 44.656C647.611 40.304 653.669 38.128 661.52 38.128C664.336 38.128 666.981 38.4267 669.456 39.024C672.016 39.6213 674.149 40.56 675.856 41.84L671.504 53.872C670.309 52.9333 668.944 52.2507 667.408 51.824C665.872 51.312 664.293 51.056 662.672 51.056C659.344 51.056 656.827 51.9947 655.12 53.872C653.413 55.664 652.56 58.3947 652.56 62.064V69.744L653.072 76.912V134H637.072ZM625.808 78.96V66.16H671.376V78.96H625.808ZM707.874 134.896C700.365 134.896 694.562 132.976 690.466 129.136C686.37 125.211 684.322 119.451 684.322 111.856V50.544H700.322V111.472C700.322 114.715 701.133 117.232 702.754 119.024C704.461 120.816 706.807 121.712 709.794 121.712C713.378 121.712 716.365 120.773 718.754 118.896L723.234 130.288C721.357 131.824 719.053 132.976 716.322 133.744C713.591 134.512 710.775 134.896 707.874 134.896ZM673.058 78.96V66.16H718.626V78.96H673.058Z" fill="#2B2B2B"/>
<path d="M4.314 108.896C2.10982 99.4844 9.25249 90.4756 18.9188 90.4756L53.5194 90.4756C60.0657 90.4756 65.8559 94.7208 67.8249 100.964L76.3463 127.983C79.395 137.65 72.177 147.495 62.0409 147.495L26.1598 147.495C19.536 147.495 13.6963 143.15 11.7926 136.806L7.5 122.5L4.314 108.896Z" fill="#33B658" fill-opacity="0.3"/>
<path d="M19.417 64.5867C16.3746 54.9387 23.5597 45.1071 33.676 45.0756L95.2757 44.8843C101.745 44.8642 107.499 48.9946 109.549 55.1309L134.31 129.24C137.543 138.918 130.378 148.931 120.174 148.993L92.5 149.161L57.0849 149.161C50.5385 149.161 44.7481 144.916 42.7793 138.672L19.417 64.5867Z" fill="#33B658" fill-opacity="0.75"/>
<path d="M48.5159 19.9346C46.0522 10.4465 53.2025 1.18371 63.0053 1.16465L137.484 1.01989C144.247 1.00674 150.182 5.52115 151.976 12.0422L183.777 127.675C186.269 136.734 179.914 145.828 170.55 146.602L136.692 149.401C135.899 149.467 135.101 149.469 134.307 149.408L91.7526 146.141C85.3643 145.65 79.9928 141.156 78.3825 134.955L48.5159 19.9346Z" fill="#33B658"/>
</svg>
