<svg width="796" height="173" viewBox="0 0 796 173" fill="none" xmlns="http://www.w3.org/2000/svg">
<path d="M4.314 108.896C2.10982 99.4844 9.25249 90.4756 18.9188 90.4756L53.5194 90.4756C60.0657 90.4756 65.8559 94.7208 67.8249 100.964L76.3463 127.983C79.395 137.65 72.177 147.495 62.0409 147.495L26.1598 147.495C19.536 147.495 13.6963 143.15 11.7926 136.806L7.5 122.5L4.314 108.896Z" fill="#EFEFEF" fill-opacity="0.3"/>
<path d="M19.417 64.5867C16.3746 54.9387 23.5597 45.1071 33.676 45.0756L95.2757 44.8843C101.745 44.8642 107.499 48.9946 109.549 55.1309L134.31 129.24C137.543 138.918 130.378 148.931 120.174 148.993L92.5 149.161L57.0849 149.161C50.5385 149.161 44.7481 144.916 42.7793 138.672L19.417 64.5867Z" fill="#EFEFEF" fill-opacity="0.75"/>
<path d="M48.5159 19.9346C46.0522 10.4465 53.2025 1.18371 63.0053 1.16465L137.484 1.01989C144.247 1.00674 150.182 5.52115 151.976 12.0422L183.777 127.675C186.269 136.734 179.914 145.828 170.55 146.602L136.692 149.401C135.899 149.467 135.101 149.469 134.307 149.408L91.7526 146.141C85.3643 145.65 79.9928 141.156 78.3825 134.955L48.5159 19.9346Z" fill="#EFEFEF"/>
<path d="M274.44 137V63.144C274.44 56.488 276.36 51.1973 280.2 47.272C284.125 43.2613 289.672 41.256 296.84 41.256C299.485 41.256 302.003 41.5973 304.392 42.28C306.867 42.8773 308.957 43.8587 310.664 45.224L306.952 54.568C305.672 53.544 304.221 52.776 302.6 52.264C300.979 51.6667 299.272 51.368 297.48 51.368C293.896 51.368 291.165 52.392 289.288 54.44C287.411 56.4027 286.472 59.3467 286.472 63.272V72.36L286.728 77.992V137H274.44ZM262.92 79.272V69.16H306.184V79.272H262.92ZM317.832 137V42.024H330.12V137H317.832ZM382.579 137.768C375.752 137.768 369.694 136.275 364.403 133.288C359.112 130.301 354.931 126.205 351.859 121C348.787 115.709 347.251 109.736 347.251 103.08C347.251 96.3387 348.787 90.3653 351.859 85.16C354.931 79.9547 359.112 75.9013 364.403 73C369.694 70.0133 375.752 68.52 382.579 68.52C389.32 68.52 395.336 70.0133 400.627 73C406.003 75.9013 410.184 79.9547 413.171 85.16C416.243 90.28 417.779 96.2533 417.779 103.08C417.779 109.821 416.243 115.795 413.171 121C410.184 126.205 406.003 130.301 400.627 133.288C395.336 136.275 389.32 137.768 382.579 137.768ZM382.579 127.016C386.931 127.016 390.814 126.035 394.227 124.072C397.726 122.109 400.456 119.336 402.419 115.752C404.382 112.083 405.363 107.859 405.363 103.08C405.363 98.216 404.382 94.0347 402.419 90.536C400.456 86.952 397.726 84.1787 394.227 82.216C390.814 80.2533 386.931 79.272 382.579 79.272C378.227 79.272 374.344 80.2533 370.931 82.216C367.518 84.1787 364.787 86.952 362.739 90.536C360.691 94.0347 359.667 98.216 359.667 103.08C359.667 107.859 360.691 112.083 362.739 115.752C364.787 119.336 367.518 122.109 370.931 124.072C374.344 126.035 378.227 127.016 382.579 127.016ZM447.234 137L422.018 69.16H433.666L456.066 130.6H450.562L473.858 69.16H484.226L507.01 130.6H501.634L524.546 69.16H535.554L510.21 137H498.434L477.058 80.936H480.642L459.01 137H447.234ZM554.423 137V42.024H566.711V137H554.423ZM590.173 137V69.16H602.461V137H590.173ZM596.317 56.104C593.928 56.104 591.922 55.336 590.301 53.8C588.765 52.264 587.997 50.3867 587.997 48.168C587.997 45.864 588.765 43.944 590.301 42.408C591.922 40.872 593.928 40.104 596.317 40.104C598.706 40.104 600.669 40.872 602.205 42.408C603.826 43.8587 604.637 45.6933 604.637 47.912C604.637 50.216 603.869 52.1787 602.333 53.8C600.797 55.336 598.792 56.104 596.317 56.104ZM627.715 137V63.144C627.715 56.488 629.635 51.1973 633.475 47.272C637.4 43.2613 642.947 41.256 650.115 41.256C652.76 41.256 655.278 41.5973 657.667 42.28C660.142 42.8773 662.232 43.8587 663.939 45.224L660.227 54.568C658.947 53.544 657.496 52.776 655.875 52.264C654.254 51.6667 652.547 51.368 650.755 51.368C647.171 51.368 644.44 52.392 642.563 54.44C640.686 56.4027 639.747 59.3467 639.747 63.272V72.36L640.003 77.992V137H627.715ZM616.195 79.272V69.16H659.459V79.272H616.195ZM694.344 137.768C687.517 137.768 682.227 135.933 678.472 132.264C674.717 128.595 672.84 123.347 672.84 116.52V54.312H685.128V116.008C685.128 119.677 686.024 122.493 687.816 124.456C689.693 126.419 692.339 127.4 695.752 127.4C699.592 127.4 702.792 126.333 705.352 124.2L709.192 133.032C707.315 134.653 705.053 135.848 702.408 136.616C699.848 137.384 697.16 137.768 694.344 137.768ZM661.32 79.272V69.16H704.584V79.272H661.32Z" fill="#F1F1F1"/>
</svg>
